<svg width="70" height="70" viewBox="0 0 70 70" fill="none" xmlns="http://www.w3.org/2000/svg">
<path d="M30.8332 11.1522L34.2572 12.5218C37.0702 13.647 40.0721 14.2251 43.1018 14.225H45.3812C46.4922 14.225 47.5714 13.8536 48.4471 13.1699C49.3229 12.4862 49.945 11.5294 50.2146 10.4516L50.2925 10.1396C50.4548 9.49094 50.4797 8.81551 50.3656 8.15665C50.2516 7.49779 50.001 6.87004 49.6301 6.31368L49.5912 6.2553C49.0439 5.43143 48.2641 4.7889 47.3507 4.40941C46.4374 4.02992 45.4318 3.93062 44.4619 4.12413L40.9416 4.82837C40.3497 4.94673 39.7476 5.00626 39.1439 5.0061H38.3307C37.4418 5.00609 36.5651 4.7991 35.77 4.40153L35.3775 4.20534C33.9969 3.51502 32.4584 3.20196 30.9179 3.29791C29.3773 3.39385 27.8895 3.89538 26.6053 4.75167C25.1356 5.73149 23.9966 7.13298 23.338 8.77203C22.6795 10.4111 22.5321 12.211 22.9153 13.9353L24.6867 21.9074L30.8332 20.3711V11.1522Z" fill="#7A4922"/>
<path d="M49.5476 40.542C48.5 40.1021 47.4095 39.7722 46.2937 39.5577L41.5888 38.6203H26.224L21.5196 39.5571C20.4037 39.7716 19.3133 40.1015 18.2656 40.5415C11.9797 43.2306 7.78711 49.4433 7.78711 54.2954V61.25H18.5938V66.7709H49.2188V61.25H60.0261V54.2961C60.0261 49.4438 55.8335 43.2312 49.5476 40.542Z" fill="#007AF6"/>
<path d="M43.102 14.2251C40.0723 14.2251 37.0703 13.6469 34.2573 12.5217L30.8334 11.1522V18.8344H27.7605C26.9455 18.8344 26.1639 19.1582 25.5876 19.7345C25.0113 20.3108 24.6875 21.0924 24.6875 21.9074C24.6875 22.311 24.767 22.7106 24.9214 23.0834C25.0759 23.4562 25.3022 23.795 25.5876 24.0803C25.8729 24.3657 26.2117 24.592 26.5845 24.7464C26.9574 24.9009 27.357 24.9803 27.7605 24.9803V40.9124C27.7605 41.8204 27.9393 42.7195 28.2868 43.5583C28.6342 44.3972 29.1435 45.1594 29.7855 45.8015C30.4276 46.4435 31.1898 46.9528 32.0286 47.3003C32.8675 47.6477 33.7666 47.8266 34.6745 47.8266C35.5825 47.8266 36.4816 47.6477 37.3204 47.3003C38.1593 46.9528 38.9215 46.4435 39.5635 45.8015C40.2056 45.1594 40.7148 44.3972 41.0623 43.5583C41.4097 42.7195 41.5886 41.8204 41.5885 40.9124V32.6621L41.5586 32.6431C42.8236 32.5366 44.0024 31.9589 44.8617 31.0244C45.7209 30.0899 46.1978 28.8668 46.198 27.5974V14.2251H43.102Z" fill="#FDC9A6"/>
<path d="M41.5883 32.8125V35H36.9795C36.6894 35 36.4112 34.8848 36.2061 34.6796C36.001 34.4745 35.8857 34.1963 35.8857 33.9062C35.8857 33.6162 36.001 33.338 36.2061 33.1329C36.4112 32.9277 36.6894 32.8125 36.9795 32.8125H41.5883Z" fill="#FDC9A6"/>
<path d="M35.4427 20.5629C36.1852 20.5629 36.7871 19.961 36.7871 19.2186C36.7871 18.4761 36.1852 17.8742 35.4427 17.8742C34.7003 17.8742 34.0984 18.4761 34.0984 19.2186C34.0984 19.961 34.7003 20.5629 35.4427 20.5629Z" fill="#7A4922"/>
<path d="M41.7806 20.5629C42.5231 20.5629 43.125 19.961 43.125 19.2186C43.125 18.4761 42.5231 17.8742 41.7806 17.8742C41.0382 17.8742 40.4363 18.4761 40.4363 19.2186C40.4363 19.961 41.0382 20.5629 41.7806 20.5629Z" fill="#7A4922"/>
<path d="M41.0117 27.6105H40.9954L40.64 27.6053C39.9712 27.595 39.3198 27.3913 38.7644 27.0187C38.209 26.646 37.7735 26.1205 37.5105 25.5056C37.3966 25.2388 37.3933 24.9377 37.5014 24.6685C37.6095 24.3993 37.8201 24.1841 38.0869 24.0702C38.3537 23.9562 38.6548 23.953 38.924 24.0611C39.1931 24.1692 39.4084 24.3798 39.5223 24.6466C39.6189 24.8725 39.7789 25.0656 39.9829 25.2026C40.187 25.3395 40.4264 25.4143 40.6721 25.4181L41.0276 25.4233C41.3176 25.4253 41.595 25.5426 41.7986 25.7492C42.0023 25.9558 42.1155 26.2348 42.1134 26.5249C42.1114 26.815 41.9941 27.0923 41.7875 27.296C41.5809 27.4996 41.3019 27.6128 41.0118 27.6108L41.0117 27.6105Z" fill="#7A4922"/>
<path d="M41.5883 32.8125V35H36.9795C36.6894 35 36.4112 34.8848 36.2061 34.6796C36.001 34.4745 35.8857 34.1963 35.8857 33.9062C35.8857 33.6162 36.001 33.338 36.2061 33.1329C36.4112 32.9277 36.6894 32.8125 36.9795 32.8125H41.5883Z" fill="#F6BB92"/>
<path d="M18.5416 61.25H7.78638V66.7708L18.5937 66.7187L18.5416 61.25Z" fill="#FDC9A6"/>
<path d="M59.974 61.25H49.2188V66.7708L60.0261 66.7187L59.974 61.25Z" fill="#FDC9A6"/>
<path d="M17.605 66.7708V50.3125C17.605 50.0224 17.7202 49.7442 17.9253 49.5391C18.1305 49.334 18.4086 49.2188 18.6987 49.2188C18.9888 49.2188 19.267 49.334 19.4721 49.5391C19.6772 49.7442 19.7925 50.0224 19.7925 50.3125V66.7708H17.605Z" fill="#005DBB"/>
<path d="M48.125 66.7708V50.3125C48.125 50.0224 48.2402 49.7442 48.4454 49.5391C48.6505 49.334 48.9287 49.2188 49.2188 49.2188C49.5088 49.2188 49.787 49.334 49.9921 49.5391C50.1973 49.7442 50.3125 50.0224 50.3125 50.3125V66.7708H48.125Z" fill="#005DBB"/>
</svg>
